<svg width="22" height="24" viewBox="0 0 22 24" fill="none" xmlns="http://www.w3.org/2000/svg">
<path fill-rule="evenodd" clip-rule="evenodd" d="M9.92784 0.117247C9.05825 0.343993 8.56669 0.619427 7.91634 1.24422C7.26241 1.87259 6.90539 2.46493 6.71776 3.23314C6.58514 3.77606 6.58273 4.67039 6.71246 5.18728C6.76734 5.40587 6.81333 5.60712 6.81464 5.63441C6.81602 5.6617 5.67844 5.68396 4.28665 5.68376C1.29561 5.68336 1.31075 5.68078 0.653866 6.31279C0.0140537 6.92825 -0.00040571 6.99429 7.42729e-06 9.30044C0.000351708 11.1897 0.00351915 11.2333 0.16058 11.5195C0.507409 12.1515 1.20003 12.3747 2.0931 12.1422C2.41493 12.0584 2.70055 12.0344 3.12415 12.0558C3.62439 12.0811 3.78462 12.1208 4.21979 12.3277C5.20354 12.7954 5.78875 13.6494 5.83998 14.6919C5.93865 16.7003 4.13751 18.0553 2.05062 17.5425C1.52566 17.4135 1.40702 17.4048 1.1099 17.4734C0.676589 17.5733 0.253054 17.9177 0.10522 18.29C0.00820131 18.5344 -0.0044684 18.8479 0.0137096 20.5581C0.0340911 22.4807 0.0397372 22.5516 0.192667 22.8272C0.436074 23.2657 0.800667 23.6136 1.22868 23.8158L1.61847 24H10.3632H19.108L19.5566 23.8317C20.4964 23.4791 21.21 22.8702 21.6113 22.0783C22.0154 21.281 21.9999 21.5962 21.9999 14.1631V7.30702L21.8153 6.92812C21.5735 6.43183 21.1005 5.99424 20.6182 5.82062C20.2603 5.69178 20.0955 5.68409 17.6892 5.68409C15.2935 5.68409 15.1416 5.67707 15.1744 5.56817C15.4014 4.81592 15.4521 4.27811 15.3545 3.65835C15.0953 2.01051 14.0123 0.752309 12.3831 0.206011C11.6782 -0.0303402 10.6379 -0.0679659 9.92784 0.117247ZM11.5781 1.47395C12.1609 1.59279 12.5356 1.77793 12.9523 2.1528C13.5966 2.73255 13.9093 3.41086 13.9093 4.22829C13.9093 4.47087 13.8632 4.81572 13.8068 4.99458C13.6906 5.36321 13.6714 5.9274 13.767 6.16925C13.8716 6.43382 14.2665 6.82213 14.5628 6.95163C14.8139 7.06133 15.072 7.07239 17.4104 7.07372C20.2233 7.0753 20.2831 7.08305 20.4488 7.46872C20.4989 7.5851 20.5159 9.74532 20.5034 14.3618L20.4851 21.0854L20.3182 21.4115C20.0956 21.8468 19.6952 22.2198 19.2214 22.4335L18.8325 22.6089L10.4847 22.6267C1.27764 22.6465 1.77739 22.6684 1.54404 22.2343C1.43903 22.0388 1.43036 21.8453 1.46472 20.4683C1.48599 19.6177 1.51402 18.9115 1.52703 18.899C1.54011 18.8864 1.73642 18.9182 1.9633 18.9695C3.36708 19.2872 4.9233 18.8392 5.99387 17.8093C7.36776 16.4876 7.67968 14.6084 6.80762 12.9067C6.11003 11.5454 4.52221 10.5883 2.96117 10.5883C2.60539 10.5883 1.83943 10.7156 1.56346 10.8205C1.44585 10.8653 1.44062 10.782 1.46017 9.17153L1.48076 7.47541L1.67156 7.29185L1.86236 7.10829L4.56352 7.07517L7.26468 7.04205L7.58989 6.8581C7.9571 6.6505 8.23225 6.25947 8.29946 5.8497C8.32872 5.6715 8.29326 5.40084 8.19108 5.02313C7.73201 3.32574 8.77092 1.74037 10.5354 1.44566C10.9921 1.36942 11.0766 1.37167 11.5781 1.47395Z" fill="#333333"/>
</svg>
