<svg width="26" height="30" viewBox="0 0 26 30" fill="none" xmlns="http://www.w3.org/2000/svg">
<path fill-rule="evenodd" clip-rule="evenodd" d="M1.44792 29.9999C0.876802 29.9999 0.413818 29.5369 0.413818 28.9658V28.9299V12.8884C0.413818 12.3172 0.876802 11.8542 1.44792 11.8542C2.01904 11.8542 2.48202 12.3172 2.48202 12.8884V27.86H22.5847V12.9739C22.5847 12.4028 23.0477 11.9398 23.6188 11.9398C24.1899 11.9398 24.6529 12.4028 24.6529 12.9739V28.9057C24.6531 28.9138 24.6532 28.9218 24.6532 28.9299C24.6532 28.938 24.6531 28.9461 24.6529 28.9542V28.9658C24.6529 29.5369 24.1899 29.9999 23.6188 29.9999C23.6127 29.9999 23.6066 29.9998 23.6005 29.9997C23.5948 29.9998 23.589 29.9998 23.5833 29.9998H1.48372C1.47792 29.9998 1.47213 29.9998 1.46636 29.9997C1.46022 29.9998 1.45408 29.9999 1.44792 29.9999Z" fill="#1DB954"/>
<path fill-rule="evenodd" clip-rule="evenodd" d="M1.44792 29.9999C0.876802 29.9999 0.413818 29.5369 0.413818 28.9658V28.9299V12.8884C0.413818 12.3172 0.876802 11.8542 1.44792 11.8542C2.01904 11.8542 2.48202 12.3172 2.48202 12.8884V27.86H22.5847V12.9739C22.5847 12.4028 23.0477 11.9398 23.6188 11.9398C24.1899 11.9398 24.6529 12.4028 24.6529 12.9739V28.9057C24.6531 28.9138 24.6532 28.9218 24.6532 28.9299C24.6532 28.938 24.6531 28.9461 24.6529 28.9542V28.9658C24.6529 29.5369 24.1899 29.9999 23.6188 29.9999C23.6127 29.9999 23.6066 29.9998 23.6005 29.9997C23.5948 29.9998 23.589 29.9998 23.5833 29.9998H1.48372C1.47792 29.9998 1.47213 29.9998 1.46636 29.9997C1.46022 29.9998 1.45408 29.9999 1.44792 29.9999Z" fill="#1AA84C"/>
<rect width="9.54172" height="2.10431" rx="1.05216" transform="matrix(0.694973 0.719035 -0.694973 0.719035 18.4409 5.96851)" fill="#1DB954"/>
<rect width="11.0202" height="2.10431" rx="1.05216" transform="matrix(0.694973 -0.719035 0.694973 0.719035 10.6306 14.0437)" fill="#1DB954"/>
<rect width="17.8446" height="2.10431" rx="1.05216" transform="matrix(0.694973 0.719035 -0.694973 0.719035 1.47949 11.3162)" fill="#1DB954"/>
<rect width="17.8446" height="2.10431" rx="1.05216" transform="matrix(0.694973 0.719035 -0.694973 0.719035 1.47949 11.3162)" fill="#1DB954"/>
<rect width="17.8446" height="2.10431" rx="1.05216" transform="matrix(0.694973 -0.719035 0.694973 0.719035 0 12.8311)" fill="#1DB954"/>
<rect width="17.8446" height="2.10431" rx="1.05216" transform="matrix(0.694973 -0.719035 0.694973 0.719035 0 12.8311)" fill="#1DB954"/>
<rect width="17.8446" height="2.10431" rx="1.05216" transform="matrix(0.694973 -0.719035 0.694973 0.719035 11.127 24.3003)" fill="#1DB954"/>
<rect width="17.8446" height="2.10431" rx="1.05216" transform="matrix(0.694973 -0.719035 0.694973 0.719035 11.127 24.3003)" fill="#1DB954"/>
</svg>
