<svg width="24" height="24" viewBox="0 0 24 24" fill="none" xmlns="http://www.w3.org/2000/svg">
<path fill-rule="evenodd" clip-rule="evenodd" d="M10.8483 0.0286756C8.04874 0.315832 5.50123 1.52179 3.5209 3.49738C-1.17363 8.18061 -1.17363 15.7782 3.5209 20.4614C5.42674 22.3627 7.74373 23.4991 10.5201 23.8943C11.077 23.9736 12.9185 23.9723 13.4967 23.8923C16.2147 23.516 18.6026 22.3416 20.475 20.4601C22.6531 18.2715 23.8646 15.4865 23.9808 12.4013C24.1061 9.07058 22.8467 5.87375 20.4712 3.49335C18.6294 1.6476 16.2958 0.482144 13.6608 0.0920037C13.0875 0.00711306 11.4237 -0.0303401 10.8483 0.0286756ZM13.7311 1.80219C15.9079 2.19871 17.7595 3.16114 19.2858 4.68955C21.25 6.65657 22.3092 9.21041 22.3092 11.9794C22.3092 14.7486 21.2486 17.3057 19.2858 19.2685C17.323 21.2313 14.7659 22.2919 11.9967 22.2919C9.22943 22.2919 6.66907 21.2299 4.70763 19.2685C3.1578 17.7186 2.19527 15.8449 1.79402 13.5966C1.67468 12.9278 1.67468 11.031 1.79402 10.3622C2.19527 8.11391 3.1578 6.24018 4.70763 4.69035C6.38088 3.0171 8.40434 2.03699 10.8483 1.71594C11.4261 1.64005 13.1189 1.69068 13.7311 1.80219ZM11.3727 5.9841C10.5679 6.05193 9.83473 6.36472 9.33705 6.8525C8.63182 7.54382 8.54285 8.43139 9.14159 8.80302C9.61474 9.09669 9.99227 9.01302 10.331 8.53944C10.7377 7.97089 11.0254 7.8043 11.6602 7.76975C12.6507 7.71589 13.2635 8.1658 13.2043 8.90347C13.1629 9.419 12.9667 9.68891 12.1609 10.3386C11.334 11.0054 11.052 11.3918 10.8686 12.1086C10.7432 12.5992 10.7434 13.4222 10.869 13.699C10.9942 13.9747 11.1752 14.0586 11.6477 14.0597C12.3303 14.0614 12.559 13.8447 12.5591 13.1963C12.5593 12.402 12.7726 12.006 13.5448 11.3669C14.7715 10.3517 15.3288 9.29666 15.1827 8.26616C14.9657 6.73405 13.4249 5.81113 11.3727 5.9841ZM11.2701 15.2215C10.4319 15.532 10.1809 16.5828 10.7923 17.2218C11.2687 17.7197 12.0013 17.7162 12.4899 17.2137C13.2296 16.4528 12.7499 15.2316 11.692 15.1825C11.5373 15.1753 11.3475 15.1928 11.2701 15.2215Z" fill="#333333"/>
</svg>
