<svg width="22" height="24" viewBox="0 0 22 24" fill="none" xmlns="http://www.w3.org/2000/svg">
<path d="M11 0.959961C5.9094 0.959961 1.61378 4.42496 0.342529 9.11996H1.34378C1.70378 7.91809 2.2869 6.81559 3.03503 5.84809C3.8544 6.30934 4.80315 6.69559 5.85315 6.99184C5.6769 7.66496 5.53253 8.37371 5.43128 9.11996H6.41003C6.50753 8.45996 6.64065 7.82996 6.79815 7.22996C7.95503 7.48496 9.20566 7.63684 10.52 7.66496V9.11996H11.48V7.66496C12.7944 7.63684 14.045 7.48684 15.2019 7.22996C15.3594 7.82996 15.4925 8.45996 15.59 9.11996H16.5688C16.4675 8.37371 16.3232 7.66496 16.1469 6.99184C17.1969 6.69559 18.1457 6.30934 18.965 5.84809C19.7132 6.81559 20.2963 7.91809 20.6544 9.11996H21.6575C20.3863 4.42496 16.0907 0.959961 11 0.959961ZM10.52 1.97809V6.70496C9.2994 6.67684 8.13878 6.53621 7.07003 6.30371C7.8594 3.94309 9.11003 2.28934 10.52 1.97809ZM11.48 1.97809C12.89 2.28934 14.1407 3.94309 14.93 6.30371C13.8613 6.53621 12.7007 6.67684 11.48 6.70496V1.97809ZM8.18378 2.32871C7.33815 3.22121 6.63128 4.50746 6.12128 6.06746C5.2044 5.80871 4.37565 5.48059 3.6669 5.09996C4.8819 3.80809 6.43628 2.84059 8.18378 2.32871ZM13.8163 2.32871C15.5638 2.84059 17.1182 3.80809 18.3332 5.09996C17.6244 5.48059 16.7957 5.80871 15.8788 6.06746C15.3688 4.50746 14.6619 3.22121 13.8163 2.32871ZM0.440029 10.08L1.65878 13.92H2.77628L3.79253 11.0493L4.80878 13.92H5.9019L7.14315 10.08H6.1044L5.32065 12.7631L4.4244 10.08H3.20003L2.26628 12.7181L1.49565 10.08H0.440029ZM7.64753 10.08L8.86815 13.92H9.98753L11 11.0493L12.0182 13.92H13.1113L14.3525 10.08H13.3119L12.53 12.7631L11.6338 10.08H10.4075L9.47378 12.7181L8.70503 10.08H7.64753ZM14.8325 10.08L16.055 13.92H17.1782L18.1963 11.0493L19.2182 13.92H20.315L21.56 10.08H20.5175L19.73 12.7631L18.8319 10.08H17.6019L16.6644 12.7181L15.89 10.08H14.8325ZM0.342529 14.88C1.61378 19.575 5.9094 23.04 11 23.04C16.0907 23.04 20.3863 19.575 21.6575 14.88H20.6544C20.2963 16.0818 19.7132 17.1843 18.965 18.1518C18.1457 17.6906 17.1969 17.3043 16.1469 17.0081C16.3232 16.335 16.4675 15.6262 16.5688 14.88H15.59C15.4925 15.54 15.3594 16.17 15.2019 16.77C14.045 16.515 12.7944 16.3631 11.48 16.335V14.88H10.52V16.335C9.20566 16.3631 7.95503 16.5131 6.79815 16.77C6.64065 16.17 6.50753 15.54 6.41003 14.88H5.43128C5.53253 15.6262 5.6769 16.335 5.85315 17.0081C4.80315 17.3043 3.8544 17.6906 3.03503 18.1518C2.2869 17.1843 1.70378 16.0818 1.34378 14.88H0.342529ZM10.52 17.295V22.0218C9.11003 21.7106 7.8594 20.0568 7.07003 17.6962C8.13878 17.4637 9.2994 17.3231 10.52 17.295ZM11.48 17.295C12.7007 17.3231 13.8613 17.4637 14.93 17.6962C14.1407 20.0568 12.89 21.7106 11.48 22.0218V17.295ZM6.12315 17.9325C6.63315 19.4925 7.33815 20.7787 8.18378 21.6693C6.43628 21.1593 4.8819 20.1918 3.6669 18.9C4.37565 18.5175 5.2044 18.1912 6.12315 17.9325ZM15.8788 17.9325C16.7957 18.1912 17.6244 18.5193 18.3332 18.9C17.1182 20.1918 15.5638 21.1593 13.8163 21.6693C14.6619 20.7787 15.3688 19.4925 15.8788 17.9325Z" fill="#666666"/>
</svg>
