<svg width="24" height="24" viewBox="0 0 24 24" fill="none" xmlns="http://www.w3.org/2000/svg">
<path fill-rule="evenodd" clip-rule="evenodd" d="M11.4888 0.207364C11.362 0.347528 11.2941 0.628796 11.2941 1.01433V1.60618L10.5718 1.68173C8.18129 1.93169 5.49071 3.44937 3.90953 5.43979C2.70177 6.96005 1.86377 8.89539 1.68906 10.5674L1.61353 11.2899H1.00153C0.312706 11.2899 0 11.5168 0 12.0165C0 12.472 0.343058 12.7022 1.02188 12.7022H1.61353L1.68906 13.4248C2.01894 16.5817 4.23094 19.6919 7.27176 21.2744C8.25176 21.7844 10.162 22.3524 10.8974 22.3524H11.2941V22.9814C11.2941 23.688 11.5166 24 12.0205 24C12.4758 24 12.7059 23.6568 12.7059 22.9778V22.3859L13.4282 22.3104C15.0996 22.1356 17.0344 21.2973 18.5541 20.0892C20.5439 18.5075 22.0611 15.816 22.3109 13.4248L22.3865 12.7022H22.9985C23.6873 12.7022 24 12.4753 24 11.9756C24 11.5201 23.6569 11.2899 22.9781 11.2899H22.3865L22.3109 10.5674C22.0611 8.1761 20.5439 5.48463 18.5541 3.90293C17.0344 2.69477 15.0996 1.85649 13.4282 1.68173L12.7059 1.60618V0.993975C12.7059 0.550182 12.6467 0.327991 12.4907 0.186886C12.2066 -0.0703748 11.7313 -0.0606065 11.4888 0.207364ZM11.2941 3.55529C11.2941 4.20256 11.5549 4.58186 12 4.58186C12.4451 4.58186 12.7059 4.20256 12.7059 3.55529C12.7059 3.08419 12.7266 3.05206 13.0294 3.05371C13.682 3.05724 14.9091 3.42642 15.9412 3.92976C17.8465 4.85901 19.2319 6.26429 20.1226 8.17127C20.5694 9.12806 20.9412 10.4007 20.9412 10.9738C20.9412 11.2676 20.9056 11.2899 20.438 11.2899C19.7909 11.2899 19.4118 11.5509 19.4118 11.9961C19.4118 12.4413 19.7909 12.7022 20.438 12.7022C20.9056 12.7022 20.9412 12.7245 20.9412 13.0183C20.9412 13.6354 20.5602 14.894 20.0574 15.9385C19.1438 17.8361 17.744 19.2188 15.8124 20.1313C14.8606 20.5811 13.6396 20.9351 13.0294 20.9384C12.7266 20.9401 12.7059 20.9079 12.7059 20.4368C12.7059 19.7896 12.4451 19.4103 12 19.4103C11.5549 19.4103 11.2941 19.7896 11.2941 20.4368C11.2941 20.9046 11.2718 20.9402 10.9781 20.9402C10.3612 20.9402 9.10306 20.5591 8.05882 20.0561C6.16247 19.1424 4.77024 17.7323 3.87741 15.8208C3.43059 14.8641 3.05882 13.5914 3.05882 13.0183C3.05882 12.7245 3.09435 12.7022 3.562 12.7022C4.20906 12.7022 4.58824 12.4413 4.58824 11.9961C4.58824 11.5509 4.20906 11.2899 3.562 11.2899C3.09435 11.2899 3.05882 11.2676 3.05882 10.9738C3.05882 10.4007 3.43059 9.12806 3.87741 8.17127C4.74659 6.31054 6.13647 4.87878 7.94859 3.97766C8.948 3.48079 10.2699 3.07089 10.9118 3.05901C11.2847 3.05206 11.2941 3.06442 11.2941 3.55529ZM10.8814 8.66979C8.40059 9.55832 7.68588 12.6233 9.52941 14.4675C10.2515 15.1898 10.9294 15.463 12 15.463C13.0578 15.463 13.7481 15.1902 14.4384 14.4997C15.1731 13.7648 15.4711 13.0404 15.4681 11.9961C15.4652 10.925 15.1908 10.2451 14.4706 9.52466C13.5353 8.58906 12.0768 8.24165 10.8814 8.66979ZM13.1269 10.2365C14.3998 11.0234 14.3754 12.9838 13.0828 13.7829C12.4832 14.1536 11.5168 14.1536 10.9172 13.7829C9.76624 13.0714 9.57976 11.4828 10.5349 10.5273C10.7592 10.303 11.1144 10.0671 11.3242 10.0032C11.8505 9.84288 12.6596 9.94762 13.1269 10.2365Z" fill="#333333"/>
</svg>
