<svg width="24" height="24" viewBox="0 0 24 24" fill="none" xmlns="http://www.w3.org/2000/svg">
<path fill-rule="evenodd" clip-rule="evenodd" d="M8.34092 0.0510623C6.25729 0.314459 4.28746 1.28289 2.79229 2.77896C-0.0366121 5.60956 -0.799882 9.90062 0.888474 13.4823C2.28363 16.442 5.06596 18.4897 8.26126 18.9088C10.6322 19.2196 13.0599 18.6103 14.9978 17.2178C15.2282 17.0523 15.4332 16.9169 15.4534 16.9169C15.4736 16.9169 17.0413 18.4676 18.9372 20.363C22.5705 23.9952 22.5745 23.9987 22.9939 24C23.201 24.0007 23.6058 23.8304 23.7299 23.6906C23.8651 23.5382 24 23.1896 24 22.9928C24 22.5737 23.9965 22.5699 20.3658 18.9336C18.4715 17.0366 16.9217 15.4701 16.9217 15.4525C16.9217 15.435 17.0587 15.2269 17.2262 14.9901C18.3913 13.343 18.9816 11.5055 18.984 9.51801C18.9871 6.94714 18.0015 4.56906 16.1838 2.76118C14.7523 1.3375 12.9854 0.435132 10.9667 0.0967134C10.3299 -0.0100717 9.00643 -0.0330614 8.34092 0.0510623ZM10.5916 2.069C12.7299 2.41263 14.5553 3.5692 15.7141 5.31468C16.576 6.6129 16.9719 7.91116 16.9772 9.45697C16.9797 10.2014 16.9266 10.6524 16.7558 11.3349C16.0958 13.9741 13.9807 16.0904 11.3431 16.7509C10.661 16.9217 10.2102 16.9749 9.46628 16.9724C7.9214 16.9671 6.62392 16.571 5.32648 15.7085C3.25579 14.3322 2.01176 11.9994 2.01101 9.49164C2.01064 8.23011 2.26923 7.1731 2.8561 6.03698C3.80435 4.20132 5.48802 2.83489 7.52036 2.25151C8.37726 2.00557 9.70569 1.9266 10.5916 2.069Z" fill="#333333"/>
</svg>
