<svg width="422" height="90" viewBox="0 0 422 90" fill="none" xmlns="http://www.w3.org/2000/svg">
<circle cx="30" cy="30" r="29" fill="white" fill-opacity="0.12" stroke="white" stroke-width="2"/>
<rect x="23.25" y="36.75" width="13.5" height="1.5" rx="0.75" fill="white"/>
<rect x="23.25" y="39.75" width="9" height="1.5" rx="0.75" fill="white"/>
<path fill-rule="evenodd" clip-rule="evenodd" d="M21.25 13.5C19.0409 13.5 17.25 15.2909 17.25 17.5V43.25C17.25 45.4591 19.0409 47.25 21.25 47.25H38.75C40.9591 47.25 42.75 45.4591 42.75 43.25V17.5C42.75 15.2909 40.9591 13.5 38.75 13.5H21.25ZM21.75 15C20.0931 15 18.75 16.3431 18.75 18V42.75C18.75 44.4069 20.0931 45.75 21.75 45.75H38.25C39.9069 45.75 41.25 44.4069 41.25 42.75V18C41.25 16.3431 39.9069 15 38.25 15H21.75Z" fill="white"/>
<path d="M33.0469 29.2969L35.8594 32.1094" stroke="white" stroke-width="1.5" stroke-linecap="round" stroke-linejoin="round"/>
<path d="M29.5312 30.2344C31.9906 30.2344 33.9844 28.2406 33.9844 25.7812C33.9844 23.3219 31.9906 21.3281 29.5312 21.3281C27.0719 21.3281 25.0781 23.3219 25.0781 25.7812C25.0781 28.2406 27.0719 30.2344 29.5312 30.2344Z" stroke="white" stroke-width="1.5" stroke-linecap="round" stroke-linejoin="round"/>
<path d="M8.38969 84.112C7.61102 84.112 6.90702 83.9787 6.27769 83.712C5.65902 83.4453 5.16835 83.0613 4.80569 82.56C4.44302 82.0587 4.25635 81.4667 4.24569 80.784H6.64569C6.67769 81.2427 6.83769 81.6053 7.12569 81.872C7.42435 82.1387 7.82969 82.272 8.34169 82.272C8.86435 82.272 9.27502 82.1493 9.57369 81.904C9.87235 81.648 10.0217 81.3173 10.0217 80.912C10.0217 80.5813 9.92035 80.3093 9.71769 80.096C9.51502 79.8827 9.25902 79.7173 8.94969 79.6C8.65102 79.472 8.23502 79.3333 7.70169 79.184C6.97635 78.9707 6.38435 78.7627 5.92569 78.56C5.47769 78.3467 5.08835 78.032 4.75769 77.616C4.43769 77.1893 4.27769 76.624 4.27769 75.92C4.27769 75.2587 4.44302 74.6827 4.77369 74.192C5.10435 73.7013 5.56835 73.328 6.16569 73.072C6.76302 72.8053 7.44569 72.672 8.21369 72.672C9.36569 72.672 10.299 72.9547 11.0137 73.52C11.739 74.0747 12.139 74.8533 12.2137 75.856H9.74969C9.72835 75.472 9.56302 75.1573 9.25369 74.912C8.95502 74.656 8.55502 74.528 8.05369 74.528C7.61635 74.528 7.26435 74.64 6.99769 74.864C6.74169 75.088 6.61369 75.4133 6.61369 75.84C6.61369 76.1387 6.70969 76.3893 6.90169 76.592C7.10435 76.784 7.34969 76.944 7.63769 77.072C7.93635 77.1893 8.35235 77.328 8.88569 77.488C9.61102 77.7013 10.203 77.9147 10.6617 78.128C11.1204 78.3413 11.515 78.6613 11.8457 79.088C12.1764 79.5147 12.3417 80.0747 12.3417 80.768C12.3417 81.3653 12.187 81.92 11.8777 82.432C11.5684 82.944 11.115 83.3547 10.5177 83.664C9.92035 83.9627 9.21102 84.112 8.38969 84.112ZM22.5237 79.376C22.5237 79.696 22.5024 79.984 22.4597 80.24H15.9797C16.033 80.88 16.257 81.3813 16.6517 81.744C17.0464 82.1067 17.5317 82.288 18.1077 82.288C18.9397 82.288 19.5317 81.9307 19.8837 81.216H22.2997C22.0437 82.0693 21.553 82.7733 20.8277 83.328C20.1024 83.872 19.2117 84.144 18.1557 84.144C17.3024 84.144 16.5344 83.9573 15.8517 83.584C15.1797 83.2 14.6517 82.6613 14.2677 81.968C13.8944 81.2747 13.7077 80.4747 13.7077 79.568C13.7077 78.6507 13.8944 77.8453 14.2677 77.152C14.641 76.4587 15.1637 75.9253 15.8357 75.552C16.5077 75.1787 17.281 74.992 18.1557 74.992C18.9984 74.992 19.7504 75.1733 20.4117 75.536C21.0837 75.8987 21.601 76.416 21.9637 77.088C22.337 77.7493 22.5237 78.512 22.5237 79.376ZM20.2037 78.736C20.193 78.16 19.985 77.7013 19.5797 77.36C19.1744 77.008 18.6784 76.832 18.0917 76.832C17.537 76.832 17.0677 77.0027 16.6837 77.344C16.3104 77.6747 16.081 78.1387 15.9957 78.736H20.2037ZM23.5827 79.536C23.5827 78.64 23.7587 77.8453 24.1107 77.152C24.4734 76.4587 24.9587 75.9253 25.5667 75.552C26.1854 75.1787 26.8734 74.992 27.6307 74.992C28.292 74.992 28.868 75.1253 29.3587 75.392C29.86 75.6587 30.26 75.9947 30.5587 76.4V75.136H32.8147V84H30.5587V82.704C30.2707 83.12 29.8707 83.4667 29.3587 83.744C28.8574 84.0107 28.276 84.144 27.6147 84.144C26.868 84.144 26.1854 83.952 25.5667 83.568C24.9587 83.184 24.4734 82.6453 24.1107 81.952C23.7587 81.248 23.5827 80.4427 23.5827 79.536ZM30.5587 79.568C30.5587 79.024 30.452 78.56 30.2387 78.176C30.0254 77.7813 29.7374 77.4827 29.3747 77.28C29.012 77.0667 28.6227 76.96 28.2067 76.96C27.7907 76.96 27.4067 77.0613 27.0547 77.264C26.7027 77.4667 26.4147 77.7653 26.1907 78.16C25.9774 78.544 25.8707 79.0027 25.8707 79.536C25.8707 80.0693 25.9774 80.5387 26.1907 80.944C26.4147 81.3387 26.7027 81.6427 27.0547 81.856C27.4174 82.0693 27.8014 82.176 28.2067 82.176C28.6227 82.176 29.012 82.0747 29.3747 81.872C29.7374 81.6587 30.0254 81.36 30.2387 80.976C30.452 80.5813 30.5587 80.112 30.5587 79.568ZM37.2424 76.512C37.5304 76.0427 37.9038 75.6747 38.3624 75.408C38.8318 75.1413 39.3651 75.008 39.9624 75.008V77.36H39.3704C38.6664 77.36 38.1331 77.5253 37.7704 77.856C37.4184 78.1867 37.2424 78.7627 37.2424 79.584V84H35.0024V75.136H37.2424V76.512ZM40.8952 79.568C40.8952 78.6507 41.0819 77.8507 41.4552 77.168C41.8285 76.4747 42.3459 75.9413 43.0072 75.568C43.6685 75.184 44.4259 74.992 45.2792 74.992C46.3779 74.992 47.2845 75.2693 47.9992 75.824C48.7245 76.368 49.2099 77.136 49.4552 78.128H47.0392C46.9112 77.744 46.6925 77.4453 46.3832 77.232C46.0845 77.008 45.7112 76.896 45.2632 76.896C44.6232 76.896 44.1165 77.1307 43.7432 77.6C43.3699 78.0587 43.1832 78.7147 43.1832 79.568C43.1832 80.4107 43.3699 81.0667 43.7432 81.536C44.1165 81.9947 44.6232 82.224 45.2632 82.224C46.1699 82.224 46.7619 81.8187 47.0392 81.008H49.4552C49.2099 81.968 48.7245 82.7307 47.9992 83.296C47.2739 83.8613 46.3672 84.144 45.2792 84.144C44.4259 84.144 43.6685 83.9573 43.0072 83.584C42.3459 83.2 41.8285 82.6667 41.4552 81.984C41.0819 81.2907 40.8952 80.4853 40.8952 79.568ZM56.0882 75.008C56.7602 75.008 57.3575 75.1573 57.8802 75.456C58.4029 75.744 58.8082 76.176 59.0962 76.752C59.3949 77.3173 59.5442 78 59.5442 78.8V84H57.3042V79.104C57.3042 78.4 57.1282 77.8613 56.7762 77.488C56.4242 77.104 55.9442 76.912 55.3362 76.912C54.7175 76.912 54.2269 77.104 53.8642 77.488C53.5122 77.8613 53.3362 78.4 53.3362 79.104V84H51.0962V72.16H53.3362V76.24C53.6242 75.856 54.0082 75.5573 54.4882 75.344C54.9682 75.12 55.5015 75.008 56.0882 75.008Z" fill="white"/>
<circle cx="211" cy="30" r="29" fill="white" fill-opacity="0.12" stroke="white" stroke-width="2"/>
<path fill-rule="evenodd" clip-rule="evenodd" d="M202.25 13.5C200.041 13.5 198.25 15.2909 198.25 17.5V43.25C198.25 45.4591 200.041 47.25 202.25 47.25H219.75C221.959 47.25 223.75 45.4591 223.75 43.25V17.5C223.75 15.2909 221.959 13.5 219.75 13.5H202.25ZM202.75 15C201.093 15 199.75 16.3431 199.75 18V42.75C199.75 44.4069 201.093 45.75 202.75 45.75H219.25C220.907 45.75 222.25 44.4069 222.25 42.75V18C222.25 16.3431 220.907 15 219.25 15H202.75Z" fill="white"/>
<rect x="203.5" y="36.75" width="13.5" height="1.5" rx="0.75" fill="white"/>
<rect x="203.5" y="39.75" width="9" height="1.5" rx="0.75" fill="white"/>
<path fill-rule="evenodd" clip-rule="evenodd" d="M209.089 31.9634C209.07 31.9879 209.049 32.0115 209.026 32.0341C208.735 32.3255 208.263 32.3272 207.97 32.0378L204.474 28.5909C204.177 28.2987 204.175 27.8209 204.47 27.5265C204.761 27.2351 205.233 27.2335 205.527 27.5228L208.514 30.4679L216.701 22.2803C216.994 21.9874 217.469 21.9874 217.762 22.2803C218.055 22.5732 218.055 23.0481 217.762 23.341L209.277 31.8263C209.22 31.8829 209.157 31.9286 209.089 31.9634Z" fill="white"/>
<path d="M190.069 84.112C189.291 84.112 188.587 83.9787 187.957 83.712C187.339 83.4453 186.848 83.0613 186.485 82.56C186.123 82.0587 185.936 81.4667 185.925 80.784H188.325C188.357 81.2427 188.517 81.6053 188.805 81.872C189.104 82.1387 189.509 82.272 190.021 82.272C190.544 82.272 190.955 82.1493 191.253 81.904C191.552 81.648 191.701 81.3173 191.701 80.912C191.701 80.5813 191.6 80.3093 191.397 80.096C191.195 79.8827 190.939 79.7173 190.629 79.6C190.331 79.472 189.915 79.3333 189.381 79.184C188.656 78.9707 188.064 78.7627 187.605 78.56C187.157 78.3467 186.768 78.032 186.437 77.616C186.117 77.1893 185.957 76.624 185.957 75.92C185.957 75.2587 186.123 74.6827 186.453 74.192C186.784 73.7013 187.248 73.328 187.845 73.072C188.443 72.8053 189.125 72.672 189.893 72.672C191.045 72.672 191.979 72.9547 192.693 73.52C193.419 74.0747 193.819 74.8533 193.893 75.856H191.429C191.408 75.472 191.243 75.1573 190.933 74.912C190.635 74.656 190.235 74.528 189.733 74.528C189.296 74.528 188.944 74.64 188.677 74.864C188.421 75.088 188.293 75.4133 188.293 75.84C188.293 76.1387 188.389 76.3893 188.581 76.592C188.784 76.784 189.029 76.944 189.317 77.072C189.616 77.1893 190.032 77.328 190.565 77.488C191.291 77.7013 191.883 77.9147 192.341 78.128C192.8 78.3413 193.195 78.6613 193.525 79.088C193.856 79.5147 194.021 80.0747 194.021 80.768C194.021 81.3653 193.867 81.92 193.557 82.432C193.248 82.944 192.795 83.3547 192.197 83.664C191.6 83.9627 190.891 84.112 190.069 84.112ZM204.203 79.376C204.203 79.696 204.182 79.984 204.139 80.24H197.659C197.713 80.88 197.937 81.3813 198.331 81.744C198.726 82.1067 199.211 82.288 199.787 82.288C200.619 82.288 201.211 81.9307 201.563 81.216H203.979C203.723 82.0693 203.233 82.7733 202.507 83.328C201.782 83.872 200.891 84.144 199.835 84.144C198.982 84.144 198.214 83.9573 197.531 83.584C196.859 83.2 196.331 82.6613 195.947 81.968C195.574 81.2747 195.387 80.4747 195.387 79.568C195.387 78.6507 195.574 77.8453 195.947 77.152C196.321 76.4587 196.843 75.9253 197.515 75.552C198.187 75.1787 198.961 74.992 199.835 74.992C200.678 74.992 201.43 75.1733 202.091 75.536C202.763 75.8987 203.281 76.416 203.643 77.088C204.017 77.7493 204.203 78.512 204.203 79.376ZM201.883 78.736C201.873 78.16 201.665 77.7013 201.259 77.36C200.854 77.008 200.358 76.832 199.771 76.832C199.217 76.832 198.747 77.0027 198.363 77.344C197.99 77.6747 197.761 78.1387 197.675 78.736H201.883ZM208.078 72.16V84H205.838V72.16H208.078ZM218.532 79.376C218.532 79.696 218.51 79.984 218.468 80.24H211.988C212.041 80.88 212.265 81.3813 212.66 81.744C213.054 82.1067 213.54 82.288 214.116 82.288C214.948 82.288 215.54 81.9307 215.892 81.216H218.308C218.052 82.0693 217.561 82.7733 216.836 83.328C216.11 83.872 215.22 84.144 214.164 84.144C213.31 84.144 212.542 83.9573 211.86 83.584C211.188 83.2 210.66 82.6613 210.276 81.968C209.902 81.2747 209.715 80.4747 209.715 79.568C209.715 78.6507 209.902 77.8453 210.276 77.152C210.649 76.4587 211.172 75.9253 211.844 75.552C212.516 75.1787 213.289 74.992 214.164 74.992C215.006 74.992 215.758 75.1733 216.42 75.536C217.092 75.8987 217.609 76.416 217.972 77.088C218.345 77.7493 218.532 78.512 218.532 79.376ZM216.212 78.736C216.201 78.16 215.993 77.7013 215.588 77.36C215.182 77.008 214.686 76.832 214.1 76.832C213.545 76.832 213.076 77.0027 212.692 77.344C212.318 77.6747 212.089 78.1387 212.004 78.736H216.212ZM219.59 79.568C219.59 78.6507 219.777 77.8507 220.151 77.168C220.524 76.4747 221.041 75.9413 221.703 75.568C222.364 75.184 223.121 74.992 223.975 74.992C225.073 74.992 225.98 75.2693 226.695 75.824C227.42 76.368 227.905 77.136 228.151 78.128H225.735C225.607 77.744 225.388 77.4453 225.079 77.232C224.78 77.008 224.407 76.896 223.959 76.896C223.319 76.896 222.812 77.1307 222.439 77.6C222.065 78.0587 221.879 78.7147 221.879 79.568C221.879 80.4107 222.065 81.0667 222.439 81.536C222.812 81.9947 223.319 82.224 223.959 82.224C224.865 82.224 225.457 81.8187 225.735 81.008H228.151C227.905 81.968 227.42 82.7307 226.695 83.296C225.969 83.8613 225.063 84.144 223.975 84.144C223.121 84.144 222.364 83.9573 221.703 83.584C221.041 83.2 220.524 82.6667 220.151 81.984C219.777 81.2907 219.59 80.4853 219.59 79.568ZM232.4 76.976V81.264C232.4 81.5627 232.469 81.7813 232.608 81.92C232.757 82.048 233.002 82.112 233.344 82.112H234.384V84H232.976C231.088 84 230.144 83.0827 230.144 81.248V76.976H229.088V75.136H230.144V72.944H232.4V75.136H234.384V76.976H232.4Z" fill="white"/>
<circle cx="392" cy="30" r="29" fill="white" fill-opacity="0.12" stroke="white" stroke-width="2"/>
<path fill-rule="evenodd" clip-rule="evenodd" d="M383.25 13.5C381.041 13.5 379.25 15.2909 379.25 17.5V43.25C379.25 45.4591 381.041 47.25 383.25 47.25H400.75C402.959 47.25 404.75 45.4591 404.75 43.25V17.5C404.75 15.2909 402.959 13.5 400.75 13.5H383.25ZM383.75 15C382.093 15 380.75 16.3431 380.75 18V42.75C380.75 44.4069 382.093 45.75 383.75 45.75H400.25C401.907 45.75 403.25 44.4069 403.25 42.75V18C403.25 16.3431 401.907 15 400.25 15H383.75Z" fill="white"/>
<path d="M398.719 24.3591C398.75 24.2797 398.758 24.1928 398.741 24.109C398.724 24.0252 398.682 23.9483 398.622 23.8878C398.562 23.8274 398.485 23.786 398.401 23.7688C398.317 23.7516 398.23 23.7594 398.151 23.7912L385.44 28.8756C385.328 28.9204 385.231 28.9952 385.159 29.0918C385.086 29.1884 385.042 29.303 385.031 29.4231C385.02 29.5431 385.042 29.664 385.095 29.7722C385.148 29.8805 385.23 29.9721 385.332 30.0368L389.696 32.8136L391.034 34.9159C391.097 35.0113 391.195 35.0781 391.307 35.1019C391.419 35.1258 391.536 35.1048 391.632 35.0434C391.729 34.9821 391.798 34.8853 391.824 34.7739C391.85 34.6625 391.831 34.5453 391.771 34.4476L390.569 32.5585L397.117 26.0105L395.461 30.1504C395.439 30.2039 395.427 30.2614 395.426 30.3195C395.426 30.3777 395.438 30.4353 395.46 30.489C395.482 30.5427 395.515 30.5913 395.556 30.6322C395.598 30.673 395.647 30.7052 395.701 30.7269C395.755 30.7485 395.812 30.7591 395.871 30.7582C395.929 30.7572 395.986 30.7446 396.039 30.7212C396.092 30.6978 396.14 30.664 396.18 30.6218C396.22 30.5796 396.252 30.5298 396.272 30.4754L398.719 24.3591V24.3591ZM396.499 25.3928L389.951 31.9407L386.16 29.5283L396.499 25.3928V25.3928Z" fill="white"/>
<path d="M398.75 34.6817C398.75 35.4928 398.428 36.2706 397.854 36.8441C397.281 37.4177 396.503 37.7399 395.692 37.7399C394.881 37.7399 394.103 37.4177 393.53 36.8441C392.956 36.2706 392.634 35.4928 392.634 34.6817C392.634 33.8706 392.956 33.0928 393.53 32.5193C394.103 31.9457 394.881 31.6235 395.692 31.6235C396.503 31.6235 397.281 31.9457 397.854 32.5193C398.428 33.0928 398.75 33.8706 398.75 34.6817V34.6817ZM397.009 33.2147C396.959 33.1852 396.905 33.1656 396.848 33.1572C396.791 33.1488 396.734 33.1517 396.678 33.1656C396.622 33.1796 396.57 33.2044 396.524 33.2386C396.478 33.2728 396.439 33.3157 396.409 33.3649L395.387 35.0688L394.909 34.5908C394.827 34.5088 394.716 34.4627 394.6 34.4627C394.484 34.4627 394.372 34.5088 394.29 34.5908C394.208 34.6729 394.162 34.7841 394.162 34.9001C394.162 35.0162 394.208 35.1274 394.29 35.2094L394.967 35.8849C395.037 35.9554 395.123 36.0089 395.217 36.0414C395.311 36.0739 395.411 36.0845 395.51 36.0724C395.609 36.0602 395.704 36.0257 395.788 35.9714C395.871 35.9171 395.941 35.8445 395.993 35.759L397.159 33.8141C397.188 33.7648 397.208 33.7103 397.216 33.6535C397.225 33.5967 397.222 33.5389 397.208 33.4832C397.194 33.4276 397.169 33.3752 397.135 33.3291C397.101 33.283 397.058 33.2441 397.009 33.2147V33.2147Z" fill="white"/>
<path d="M376.437 84.112C375.658 84.112 374.954 83.9787 374.325 83.712C373.706 83.4453 373.215 83.0613 372.853 82.56C372.49 82.0587 372.303 81.4667 372.293 80.784H374.693C374.725 81.2427 374.885 81.6053 375.173 81.872C375.471 82.1387 375.877 82.272 376.389 82.272C376.911 82.272 377.322 82.1493 377.621 81.904C377.919 81.648 378.069 81.3173 378.069 80.912C378.069 80.5813 377.967 80.3093 377.765 80.096C377.562 79.8827 377.306 79.7173 376.997 79.6C376.698 79.472 376.282 79.3333 375.749 79.184C375.023 78.9707 374.431 78.7627 373.973 78.56C373.525 78.3467 373.135 78.032 372.805 77.616C372.485 77.1893 372.325 76.624 372.325 75.92C372.325 75.2587 372.49 74.6827 372.821 74.192C373.151 73.7013 373.615 73.328 374.213 73.072C374.81 72.8053 375.493 72.672 376.261 72.672C377.413 72.672 378.346 72.9547 379.061 73.52C379.786 74.0747 380.186 74.8533 380.261 75.856H377.797C377.775 75.472 377.61 75.1573 377.301 74.912C377.002 74.656 376.602 74.528 376.101 74.528C375.663 74.528 375.311 74.64 375.045 74.864C374.789 75.088 374.661 75.4133 374.661 75.84C374.661 76.1387 374.757 76.3893 374.949 76.592C375.151 76.784 375.397 76.944 375.685 77.072C375.983 77.1893 376.399 77.328 376.933 77.488C377.658 77.7013 378.25 77.9147 378.709 78.128C379.167 78.3413 379.562 78.6613 379.893 79.088C380.223 79.5147 380.389 80.0747 380.389 80.768C380.389 81.3653 380.234 81.92 379.925 82.432C379.615 82.944 379.162 83.3547 378.565 83.664C377.967 83.9627 377.258 84.112 376.437 84.112ZM390.571 79.376C390.571 79.696 390.549 79.984 390.507 80.24H384.027C384.08 80.88 384.304 81.3813 384.699 81.744C385.093 82.1067 385.579 82.288 386.155 82.288C386.987 82.288 387.579 81.9307 387.931 81.216H390.347C390.091 82.0693 389.6 82.7733 388.875 83.328C388.149 83.872 387.259 84.144 386.203 84.144C385.349 84.144 384.581 83.9573 383.899 83.584C383.227 83.2 382.699 82.6613 382.315 81.968C381.941 81.2747 381.755 80.4747 381.755 79.568C381.755 78.6507 381.941 77.8453 382.315 77.152C382.688 76.4587 383.211 75.9253 383.883 75.552C384.555 75.1787 385.328 74.992 386.203 74.992C387.045 74.992 387.797 75.1733 388.459 75.536C389.131 75.8987 389.648 76.416 390.011 77.088C390.384 77.7493 390.571 78.512 390.571 79.376ZM388.251 78.736C388.24 78.16 388.032 77.7013 387.627 77.36C387.221 77.008 386.725 76.832 386.139 76.832C385.584 76.832 385.115 77.0027 384.731 77.344C384.357 77.6747 384.128 78.1387 384.043 78.736H388.251ZM397.118 75.008C398.174 75.008 399.027 75.344 399.678 76.016C400.328 76.6773 400.654 77.6053 400.654 78.8V84H398.414V79.104C398.414 78.4 398.238 77.8613 397.886 77.488C397.534 77.104 397.054 76.912 396.446 76.912C395.827 76.912 395.336 77.104 394.974 77.488C394.622 77.8613 394.446 78.4 394.446 79.104V84H392.206V75.136H394.446V76.24C394.744 75.856 395.123 75.5573 395.582 75.344C396.051 75.12 396.563 75.008 397.118 75.008ZM402.208 79.536C402.208 78.64 402.384 77.8453 402.736 77.152C403.098 76.4587 403.589 75.9253 404.208 75.552C404.826 75.1787 405.514 74.992 406.272 74.992C406.848 74.992 407.397 75.12 407.92 75.376C408.442 75.6213 408.858 75.952 409.168 76.368V72.16H411.44V84H409.168V82.688C408.89 83.1253 408.501 83.4773 408 83.744C407.498 84.0107 406.917 84.144 406.256 84.144C405.509 84.144 404.826 83.952 404.208 83.568C403.589 83.184 403.098 82.6453 402.736 81.952C402.384 81.248 402.208 80.4427 402.208 79.536ZM409.184 79.568C409.184 79.024 409.077 78.56 408.864 78.176C408.65 77.7813 408.362 77.4827 408 77.28C407.637 77.0667 407.248 76.96 406.832 76.96C406.416 76.96 406.032 77.0613 405.68 77.264C405.328 77.4667 405.04 77.7653 404.816 78.16C404.602 78.544 404.496 79.0027 404.496 79.536C404.496 80.0693 404.602 80.5387 404.816 80.944C405.04 81.3387 405.328 81.6427 405.68 81.856C406.042 82.0693 406.426 82.176 406.832 82.176C407.248 82.176 407.637 82.0747 408 81.872C408.362 81.6587 408.65 81.36 408.864 80.976C409.077 80.5813 409.184 80.112 409.184 79.568Z" fill="white"/>
<line x1="61.5" y1="31.5" x2="180.5" y2="31.5" stroke="white" stroke-linecap="round" stroke-dasharray="4 4"/>
<line x1="242.5" y1="31.5" x2="361.5" y2="31.5" stroke="white" stroke-linecap="round" stroke-dasharray="4 4"/>
</svg>
