<svg width="21" height="24" viewBox="0 0 21 24" fill="none" xmlns="http://www.w3.org/2000/svg">
<path fill-rule="evenodd" clip-rule="evenodd" d="M9.84 0.0315407C9.77555 0.053947 7.63454 0.940306 5.08219 2.00118C1.45046 3.51074 0.408567 3.96206 0.289786 4.07713C-0.0205265 4.37784 -0.0132141 4.28442 0.00961405 7.65674C0.0308953 10.8046 0.0478641 11.1194 0.255661 12.2226C0.847317 15.364 2.35857 18.2347 4.60172 20.4781C5.95093 21.8274 7.44718 22.863 9.25407 23.6982C9.75404 23.9293 9.85046 23.9581 10.1213 23.9581C10.3919 23.9581 10.4907 23.9285 11.0046 23.6935C16.2769 21.2829 19.7483 16.3079 20.1992 10.5165C20.2251 10.1841 20.2458 8.70749 20.2452 7.23529C20.2442 4.72982 20.2387 4.54649 20.1574 4.37099C20.1097 4.26787 20.0089 4.1256 19.9335 4.05487C19.8388 3.96604 18.3475 3.32376 15.1112 1.97803C10.326 -0.0118656 10.1507 -0.076553 9.84 0.0315407ZM14.2697 3.65943L18.3478 5.35687L18.3454 7.98112C18.3432 10.4629 18.3373 10.6423 18.2376 11.2851C18.1796 11.6589 18.0813 12.1862 18.0192 12.4569C17.083 16.5364 14.3519 19.9766 10.5957 21.8078L10.1163 22.0416L9.49772 21.7288C5.70244 19.8097 2.99635 16.2857 2.15475 12.1664C1.91522 10.9939 1.89554 10.6734 1.89511 7.93504L1.89469 5.35851L5.97282 3.66112C8.21579 2.72756 10.0826 1.96335 10.1213 1.96288C10.1599 1.96242 12.0267 2.72587 14.2697 3.65943ZM13.4025 8.31248C13.2999 8.35663 12.4619 9.15857 11.165 10.4536L9.0916 12.5242L8.04783 11.4896C7.20029 10.6495 6.9623 10.4394 6.78179 10.3717C6.07093 10.1049 5.37366 10.7681 5.574 11.5203C5.62369 11.7068 5.78865 11.8898 7.04358 13.1511C7.82105 13.9325 8.53097 14.6177 8.62116 14.6738C8.8313 14.8045 9.2723 14.8149 9.51338 14.6947C9.60446 14.6493 10.788 13.4997 12.1433 12.14C14.4196 9.85663 14.6123 9.65099 14.667 9.44699C14.8745 8.67281 14.1259 8.00109 13.4025 8.31248Z" fill="#333333"/>
</svg>
