<svg width="19" height="24" viewBox="0 0 19 24" fill="none" xmlns="http://www.w3.org/2000/svg">
<path fill-rule="evenodd" clip-rule="evenodd" d="M2.0625 0.0324789C1.15111 0.221995 0.413859 0.872432 0.108375 1.75668L0 2.07028V11.9843V21.8984L0.107063 22.2082C0.375516 22.9847 0.975047 23.5852 1.74891 23.8525L2.0625 23.9609H9.11719H16.1719L16.4855 23.8525C17.2593 23.5852 17.8589 22.9847 18.1273 22.2082L18.2344 21.8984V14.1172V6.3359L18.1126 6.00299C18.0456 5.8199 17.9124 5.55206 17.8167 5.40787C17.6034 5.08645 12.9994 0.710854 12.5707 0.422151C12.4115 0.314901 12.1441 0.177791 11.9766 0.117463L11.6719 0.00777579L6.96094 0.000650792C4.36992 -0.00328671 2.16563 0.011057 2.0625 0.0324789ZM10.9553 3.58307L10.9688 5.77556L11.1216 6.08587C11.2994 6.44695 11.5536 6.69492 11.9241 6.86864L12.1875 6.99215L14.5195 7.00551L16.8516 7.01892V14.2979C16.8516 22.4734 16.8791 21.8499 16.5012 22.2277C16.1245 22.6045 16.6813 22.5781 9.11719 22.5781C1.55306 22.5781 2.10989 22.6045 1.73316 22.2277C1.35183 21.8465 1.38281 22.7522 1.38281 11.9843C1.38281 1.21443 1.35169 2.12235 1.734 1.74009C2.09447 1.37957 1.827 1.39842 6.6428 1.39429L10.9418 1.39059L10.9553 3.58307ZM14.5195 4.12589C15.3638 4.92454 16.0547 5.58501 16.0547 5.59364C16.0547 5.60226 15.2546 5.60934 14.2768 5.60934C12.723 5.60934 12.4896 5.60006 12.4252 5.5357C12.361 5.47143 12.3516 5.24592 12.3516 3.77249V2.08298L12.668 2.37843C12.842 2.5409 13.6752 3.32728 14.5195 4.12589ZM3.48098 9.45599C3.28308 9.56048 3.11719 9.83704 3.11719 10.0625C3.11719 10.2951 3.28298 10.5651 3.49097 10.6712C3.67312 10.7641 3.75666 10.7656 8.97656 10.7656C14.1965 10.7656 14.28 10.7641 14.4622 10.6712C14.6701 10.5651 14.8359 10.2951 14.8359 10.0625C14.8359 9.82987 14.6701 9.55982 14.4622 9.4537C14.2799 9.36074 14.1986 9.35939 8.96672 9.3614C3.77208 9.36342 3.65241 9.36548 3.48098 9.45599ZM3.48098 13.206C3.28308 13.3105 3.11719 13.587 3.11719 13.8125C3.11719 14.0451 3.28298 14.3151 3.49097 14.4212C3.67312 14.5141 3.75666 14.5156 8.97656 14.5156C14.1965 14.5156 14.28 14.5141 14.4622 14.4212C14.6701 14.3151 14.8359 14.0451 14.8359 13.8125C14.8359 13.5799 14.6701 13.3098 14.4622 13.2037C14.2799 13.1107 14.1986 13.1094 8.96672 13.1114C3.77208 13.1134 3.65241 13.1155 3.48098 13.206ZM3.48098 16.9552C3.28313 17.0606 3.11719 17.3376 3.11719 17.5625C3.11719 17.7966 3.28294 18.0651 3.49392 18.1727C3.67552 18.2654 3.74639 18.2682 5.57587 18.2554C7.40484 18.2426 7.47427 18.2388 7.59919 18.1455C7.83155 17.972 7.91648 17.8159 7.91648 17.5625C7.91648 17.309 7.83155 17.153 7.59919 16.9794C7.47403 16.886 7.40723 16.8824 5.56303 16.8723C3.73791 16.8623 3.64875 16.8658 3.48098 16.9552Z" fill="#333333"/>
</svg>
