<svg width="80" height="80" viewBox="0 0 80 80" fill="none" xmlns="http://www.w3.org/2000/svg">
<path d="M40 0C18.316 0 0 18.316 0 40C0 61.684 18.316 80 40 80C61.684 80 80 61.684 80 40C80 18.316 61.684 0 40 0ZM40 20C46.908 20 52 25.088 52 32C52 38.912 46.908 44 40 44C33.096 44 28 38.912 28 32C28 25.088 33.096 20 40 20ZM19.576 59.088C23.164 53.808 29.148 50.288 36 50.288H44C50.856 50.288 56.836 53.808 60.424 59.088C55.312 64.56 48.06 68 40 68C31.94 68 24.688 64.56 19.576 59.088Z" fill="#C4C4C4"/>
<path fill-rule="evenodd" clip-rule="evenodd" d="M77.4817 54C71.8067 69.1867 57.1662 80 40.0001 80C22.834 80 8.1935 69.1867 2.51855 54H77.4817Z" fill="white" fill-opacity="0.46"/>
</svg>
