<svg width="10" height="10" viewBox="0 0 10 10" fill="none" xmlns="http://www.w3.org/2000/svg">
<path fill-rule="evenodd" clip-rule="evenodd" d="M0.972351 0.166829C0.749912 -0.0556097 0.389268 -0.0556096 0.166829 0.166829C-0.0556095 0.389268 -0.0556098 0.749912 0.166829 0.97235L4.19452 5.00004L0.166915 9.02765C-0.0555236 9.25009 -0.0555235 9.61073 0.166915 9.83317C0.389354 10.0556 0.749998 10.0556 0.972437 9.83317L5.00004 5.80556L9.02757 9.83309C9.25001 10.0555 9.61065 10.0555 9.83309 9.83309C10.0555 9.61065 10.0555 9.25001 9.83309 9.02757L5.80556 5.00004L9.83318 0.972431C10.0556 0.749993 10.0556 0.389348 9.83318 0.16691C9.61074 -0.0555289 9.25009 -0.0555293 9.02766 0.166909L5.00004 4.19452L0.972351 0.166829Z" fill="#666666"/>
</svg>
